:SAMPLES-PER-SECOND 30
:FULLY-SPECIFIED
:DEGREES
196
root  -51.2156 34.7766 -26.6117 -168.74 41.5997 -177.968
RightUpLeg  -17.5945 -18.8817 3.16844
RightLeg  18.8766 -5.69683 -1.54472
RightFoot  1.01931 0.00159666 0.07782
RightToes  -20.3729 -0.0835474 -0.179814
Spine  -0.919321 -0.760479 -2.79358
Spine1  -1.85848 -1.51526 -4.87012
HEad  -78.5048 -42.1202 16.885
LeftShoulder1  -1.94126e-019 -3.10601e-018 -2.51263e-017
LeftArm  -6.8916 16.9987 -77.3684
LeftForeArm  29.9196 -24.0723 -3.7639
LeftHand  -0.286726 -1.49066 4.96492
RightShoulder  -4.96962e-017 0 -2.36833e-017
RightArm  -27.3541 -24.1513 76.1672
RightForeArm  51.96 32.6459 4.32651
RightHand  -0.253555 0.435503 -5.12507
LeftUpLeg  -7.38058 15.2682 4.45506
LeftLeg  9.40088 14.2356 1.40949
LeftFoot  3.01362 -0.0204829 0.914307
LeftToes  -22.6945 1.46665e-006 1.03344e-007
197
root  -51.3644 34.7415 -26.7287 -168.684 42.4373 -178.156
RightUpLeg  -19.3111 -20.043 2.95681
RightLeg  21.3005 -4.32725 -1.37475
RightFoot  0.948878 0.000369434 0.098893
RightToes  -21.1943 -0.0882161 -0.186355
Spine  -0.887084 -0.890859 -2.56362
Spine1  -1.79574 -1.78335 -4.40396
HEad  -78.5794 -41.1852 17.079
LeftShoulder1  -1.94126e-019 -3.10601e-018 -2.51263e-017
LeftArm  -9.1287 18.5905 -76.7175
LeftForeArm  30.3243 -19.8199 -3.18634
LeftHand  -0.284562 -1.19105 5.16063
RightShoulder  -4.96962e-017 0 -2.36833e-017
RightArm  -27.4746 -24.4362 77.3289
RightForeArm  53.3648 29.87 3.6417
RightHand  -0.275261 0.783326 -5.27741
LeftUpLeg  -7.73439 15.2508 3.87955
LeftLeg  10.0756 15.0172 1.66175
LeftFoot  2.42707 -0.014253 0.798195
LeftToes  -22.1666 1.46665e-006 1.03344e-007
198
root  -51.4169 34.7174 -26.8314 -168.36 43.3306 -177.959
RightUpLeg  -20.9646 -21.4791 3.33633
RightLeg  23.4921 -3.99376 -1.44075
RightFoot  1.17043 0.0019372 0.083139
RightToes  -22.5393 -0.0960621 -0.196919
Spine  -0.868084 -0.957428 -2.25667
Spine1  -1.75785 -1.9219 -3.78369
HEad  -78.6474 -40.3386 17.1086
LeftShoulder1  -1.94126e-019 -3.10601e-018 -2.51263e-017
LeftArm  -12.7683 20.3544 -76.0836
LeftForeArm  30.5568 -15.7961 -2.64345
LeftHand  -0.280341 -0.909842 5.2881
RightShoulder  -4.96962e-017 0 -2.36833e-017
RightArm  -28.2961 -24.9472 78.4689
RightForeArm  54.2626 26.5102 2.89514
RightHand  -0.310417 0.946955 -5.80119
LeftUpLeg  -7.99267 14.9569 3.70769
LeftLeg  10.7538 16.1967 1.98046
LeftFoot  1.88511 -0.00874319 0.693004
LeftToes  -21.6378 1.46665e-006 1.03344e-007
199
root  -51.3665 34.694 -26.9344 -168.072 44.5149 -177.627
RightUpLeg  -22.453 -23.2821 4.13757
RightLeg  25.2674 -5.39454 -2.13455
RightFoot  1.3573 0.00582846 0.0375691
RightToes  -23.5495 -0.102117 -0.20473
Spine  -0.839613 -0.947266 -1.9465
Spine1  -1.69977 -1.90871 -3.15311
HEad  -78.7268 -39.429 17.0603
LeftShoulder1  -1.94126e-019 -3.10601e-018 -2.51263e-017
LeftArm  -15.925 22.3752 -75.2845
LeftForeArm  30.8102 -12.0293 -2.0656
LeftHand  -0.304607 -0.245951 6.35012
RightShoulder  -4.96962e-017 0 -2.36833e-017
RightArm  -29.5537 -25.5959 79.4555
RightForeArm  54.5023 22.9573 2.17731
RightHand  -0.293374 0.695767 -5.69176
LeftUpLeg  -7.72359 15.2488 3.79326
LeftLeg  10.9886 17.0688 2.15389
LeftFoot  1.54089 -0.00612911 0.617356
LeftToes  -21.4637 1.46665e-006 1.03344e-007
200
root  -51.2413 34.6269 -27.0238 -167.779 45.6169 -177.294
RightUpLeg  -23.9028 -25.3573 5.1367
RightLeg  26.5539 -7.90991 -3.32673
RightFoot  0.289791 0.000605506 0.142319
RightToes  -23.0763 -0.0992636 -0.201085
Spine  -0.808653 -0.986981 -1.63441
Spine1  -1.63844 -1.98922 -2.53074
HEad  -78.9422 -38.3047 17.098
LeftShoulder1  -1.94126e-019 -3.10601e-018 -2.51263e-017
LeftArm  -19.0311 24.8347 -74.385
LeftForeArm  31.4725 -10.1958 -1.78576
LeftHand  -0.333842 0.169161 7.46849
RightShoulder  -4.96962e-017 0 -2.36833e-017
RightArm  -30.9502 -26.1768 80.0976
RightForeArm  54.9322 19.1956 1.44936
RightHand  -0.287535 0.630403 -5.63461
LeftUpLeg  -7.71275 15.5446 3.99249
LeftLeg  11.9179 17.8284 2.53586
LeftFoot  0.903399 -0.00210756 0.428923
LeftToes  -21.3964 1.46665e-006 1.03344e-007
201
root  -51.0305 34.5348 -27.1081 -167.409 46.7167 -177.011
RightUpLeg  -25.2879 -27.4284 6.25852
RightLeg  27.0813 -9.77767 -4.20667
RightFoot  -1.63642 -0.00202827 0.492395
RightToes  -21.2958 -0.0887993 -0.187158
Spine  -0.864484 -1.03145 -1.35651
Spine1  -1.73056 -2.09219 -1.99227
HEad  -79.1579 -37.4364 17.1533
LeftShoulder1  -1.94126e-019 -3.10601e-018 -2.51263e-017
LeftArm  -20.587 27.3027 -73.2538
LeftForeArm  31.8205 -8.82584 -1.54726
LeftHand  -0.347683 0.585541 8.41074
RightShoulder  -4.96962e-017 0 -2.36833e-017
RightArm  -32.3292 -27.2549 80.4563
RightForeArm  55.832 17.1816 1.06418
RightHand  -0.278217 0.56592 -5.50743
LeftUpLeg  -7.61736 16.2336 4.26074
LeftLeg  12.6489 18.1969 2.81938
LeftFoot  0.377456 -0.00029611 0.251527
LeftToes  -21.7129 1.46665e-006 1.03344e-007
202
root  -50.7395 34.4293 -27.1822 -167.1 47.7803 -176.852
RightUpLeg  -26.5517 -29.4529 7.4301
RightLeg  26.8252 -10.2524 -4.35361
RightFoot  -2.62023 0.00141352 0.683443
RightToes  -20.7382 -0.085612 -0.182731
Spine  -0.975475 -1.09556 -1.12404
Spine1  -1.90788 -2.24959 -1.52213
HEad  -79.2169 -36.6421 17.0464
LeftShoulder1  -1.94126e-019 -3.10601e-018 -2.51263e-017
LeftArm  -21.5012 29.3747 -72.1225
LeftForeArm  33.1471 -7.14613 -1.24656
LeftHand  -0.368709 0.728737 9.18243
RightShoulder  -4.96962e-017 0 -2.36833e-017
RightArm  -34.6899 -28.3112 80.2839
RightForeArm  58.0673 15.0125 1.09011
RightHand  -0.272079 0.485379 -5.45363
LeftUpLeg  -7.37898 16.9792 4.56948
LeftLeg  13.2177 18.4498 3.04137
LeftFoot  -0.0148859 -5.96446e-006 0.114152
LeftToes  -22.3388 1.46665e-006 1.03344e-007
203
root  -50.3854 34.3135 -27.2394 -166.78 48.9133 -176.733
RightUpLeg  -27.5934 -30.5706 8.42574
RightLeg  26.0496 -9.36158 -3.83269
RightFoot  -2.19097 -0.00173209 0.524163
RightToes  -20.3996 -0.0836976 -0.180028
Spine  -1.1503 -1.11666 -0.909673
Spine1  -2.19751 -2.34057 -1.07171
HEad  -78.9709 -36.2545 16.699
LeftShoulder1  -1.94126e-019 -3.10601e-018 -2.51263e-017
LeftArm  -21.6396 30.9979 -71.0406
LeftForeArm  34.6654 -5.43011 -0.941471
LeftHand  -0.381967 0.827589 9.71143
RightShoulder  -4.96962e-017 0 -2.36833e-017
RightArm  -37.6801 -29.535 79.559
RightForeArm  61.3359 12.9033 1.36426
RightHand  -0.309923 0.6073 -6.08875
LeftUpLeg  -7.16385 17.4672 4.91282
LeftLeg  13.9507 19.0089 3.37521
LeftFoot  -0.365022 -0.000564496 -0.0156973
LeftToes  -23.0542 1.46665e-006 1.03344e-007
204
root  -49.9365 34.1927 -27.2592 -166.225 49.8564 -176.374
RightUpLeg  -28.2001 -30.1016 9.08546
RightLeg  26.5377 -8.45805 -3.55167
RightFoot  -2.12889 -0.00293504 0.447514
RightToes  -13.4939 -0.0482347 -0.122566
Spine  -1.34907 -1.13049 -0.659648
Spine1  -2.54029 -2.41493 -0.551677
HEad  -78.8277 -35.3688 16.3528
LeftShoulder1  -1.94126e-019 -3.10601e-018 -2.51263e-017
LeftArm  -21.7276 32.1133 -70.0106
LeftForeArm  36.2047 -3.95471 -0.680096
LeftHand  -0.393012 0.954242 10.2675
RightShoulder  -4.96962e-017 0 -2.36833e-017
RightArm  -41.7584 -30.4647 78.6295
RightForeArm  62.7742 11.051 1.52884
RightHand  -0.232587 -0.292936 -5.29889
LeftUpLeg  -7.16996 17.6653 5.56852
LeftLeg  15.1944 19.6432 3.91485
LeftFoot  -0.856659 -0.00276201 -0.207902
LeftToes  -23.8693 1.46665e-006 1.03344e-007
205
root  -49.4222 34.0596 -27.2953 -166.338 50.5538 -176.516
RightUpLeg  -27.7737 -27.7896 8.49986
RightLeg  28.1191 -9.62692 -4.35021
RightFoot  -3.58419 0.00510523 0.770143
RightToes  -15.9724 -0.0601626 -0.143677
Spine  -1.46292 -1.20307 -0.549083
Spine1  -2.72203 -2.63612 -0.296012
HEad  -78.5985 -35.4503 16.2665
LeftShoulder1  -1.94126e-019 -3.10601e-018 -2.51263e-017
LeftArm  -22.2318 32.735 -68.9771
LeftForeArm  36.8192 -3.04946 -0.520833
LeftHand  -0.387836 1.26245 10.8571
RightShoulder  -4.96962e-017 0 -2.36833e-017
RightArm  -44.5351 -31.6609 77.5835
RightForeArm  65.7978 9.41555 1.5055
RightHand  -0.310717 -0.0572387 -6.79763
LeftUpLeg  -6.96771 16.8856 6.00909
LeftLeg  16.7658 20.8949 4.73624
LeftFoot  -1.2448 -0.00601982 -0.392571
LeftToes  -24.6672 1.46665e-006 1.03344e-007
206
root  -48.8073 33.9727 -27.2766 -165.96 50.7157 -175.733
RightUpLeg  -26.5102 -26.0115 8.86953
RightLeg  28.2329 -10.9978 -4.98424
RightFoot  -4.70737 0.0201617 1.10377
RightToes  -13.3142 -0.0474057 -0.121016
Spine  -1.47056 -1.37065 -0.214014
Spine1  -2.73535 -3.06244 0.395877
HEad  -78.4488 -34.7782 15.9235
LeftShoulder1  -1.94126e-019 -3.10601e-018 -2.51263e-017
LeftArm  -23.5829 32.8492 -68.3912
LeftForeArm  36.7687 -2.74881 -0.468347
LeftHand  -0.38162 1.54892 11.4493
RightShoulder  -4.96962e-017 0 -2.36833e-017
RightArm  -46.878 -32.2567 76.3643
RightForeArm  66.5669 8.21902 1.37978
RightHand  -0.275342 -0.74885 -6.84406
LeftUpLeg  -6.88565 15.8678 7.34366
LeftLeg  19.0302 21.8072 5.81946
LeftFoot  -1.60135 -0.0104999 -0.589734
LeftToes  -25.4838 1.46665e-006 1.03344e-007
